<mxfile host="app.diagrams.net" modified="2022-04-20T12:52:57.271Z" agent="5.0 (Windows NT 10.0; Win64; x64) AppleWebKit/537.36 (KHTML, like Gecko) Chrome/100.0.4896.127 Safari/537.36 Edg/100.0.1185.44" etag="BbTRFvfmTYU9BR0QwOl3" version="17.4.5" type="github">
  <diagram id="KJ8_TDiycVxK0hEmoLZQ" name="Page-1">
    <mxGraphModel dx="1550" dy="834" grid="1" gridSize="10" guides="1" tooltips="1" connect="1" arrows="1" fold="1" page="1" pageScale="1" pageWidth="827" pageHeight="1169" math="0" shadow="0">
      <root>
        <mxCell id="0" />
        <mxCell id="1" parent="0" />
        <mxCell id="MG1MmaE0Qol8gTydIqFs-1" value="Data Lake" style="aspect=fixed;html=1;points=[];align=center;image;fontSize=12;image=img/lib/azure2/general/Storage_Container.svg;" vertex="1" parent="1">
          <mxGeometry x="340" y="250" width="123.08" height="100" as="geometry" />
        </mxCell>
      </root>
    </mxGraphModel>
  </diagram>
</mxfile>
